<?xml version="1.0" encoding="UTF-8"?>
<svg xmlns="http://www.w3.org/2000/svg" version="1.1" viewBox="0 0 14.33 14.33">
  <!-- Generator: Adobe Illustrator 28.6.0, SVG Export Plug-In . SVG Version: 1.2.0 Build 709)  -->
  <g>
    <g id="Layer_1">
      <path d="M2.1,2.1c-2.8,2.8-2.8,7.34,0,10.13s7.34,2.8,10.13,0c2.8-2.8,2.8-7.34,0-10.13s-7.34-2.8-10.14,0h0ZM3.37,6.27h2.9s0-2.9,0-2.9c0-.23.09-.46.26-.64.35-.35.92-.35,1.27,0,.18.18.26.41.26.64v2.9s2.9,0,2.9,0c.23,0,.46.08.64.26.35.35.35.92,0,1.27-.18.18-.41.26-.64.26h-2.9s0,2.9,0,2.9c0,.23-.09.46-.26.64-.35.35-.92.35-1.27,0-.18-.18-.26-.41-.26-.64v-2.9s-2.9,0-2.9,0c-.23,0-.46-.08-.64-.26-.35-.35-.35-.92,0-1.27.18-.18.41-.26.64-.26Z"/>
    </g>
  </g>
</svg>