<svg width="20" height="21" viewBox="0 0 20 21" fill="none" xmlns="http://www.w3.org/2000/svg">
<path d="M16.1934 14.0362L14.7794 12.6202L16.1934 11.2062C16.661 10.7427 17.0325 10.1913 17.2864 9.58383C17.5404 8.97633 17.6719 8.32465 17.6733 7.6662C17.6748 7.00775 17.5461 6.3555 17.2948 5.74689C17.0435 5.13828 16.6745 4.58531 16.2089 4.11971C15.7433 3.65412 15.1903 3.28507 14.5817 3.03376C13.9731 2.78245 13.3208 2.65382 12.6624 2.65526C12.0039 2.6567 11.3523 2.78819 10.7448 3.04216C10.1373 3.29614 9.58591 3.6676 9.12236 4.13523L7.70836 5.55023L6.29336 4.13623L7.70936 2.72223C9.02218 1.40941 10.8027 0.671875 12.6594 0.671875C14.516 0.671875 16.2965 1.40941 17.6094 2.72223C18.9222 4.03505 19.6597 5.81562 19.6597 7.67223C19.6597 9.52884 18.9222 11.3094 17.6094 12.6222L16.1944 14.0362H16.1934ZM13.3654 16.8642L11.9504 18.2782C10.6375 19.5911 8.85697 20.3286 7.00036 20.3286C5.14375 20.3286 3.36318 19.5911 2.05036 18.2782C0.737536 16.9654 1.95626e-08 15.1848 0 13.3282C-1.95626e-08 11.4716 0.737536 9.69105 2.05036 8.37823L3.46536 6.96423L4.87936 8.38023L3.46536 9.79423C2.99773 10.2578 2.62626 10.8091 2.37229 11.4166C2.11831 12.0241 1.98683 12.6758 1.98539 13.3343C1.98394 13.9927 2.11257 14.645 2.36388 15.2536C2.6152 15.8622 2.98424 16.4152 3.44984 16.8808C3.91544 17.3463 4.46841 17.7154 5.07701 17.9667C5.68562 18.218 6.33787 18.3466 6.99632 18.3452C7.65477 18.3438 8.30645 18.2123 8.91395 17.9583C9.52145 17.7043 10.0728 17.3329 10.5364 16.8652L11.9504 15.4512L13.3654 16.8652V16.8642ZM12.6574 6.25723L14.0724 7.67223L7.00136 14.7422L5.58636 13.3282L12.6574 6.25823V6.25723Z" fill="#03053D"/>
</svg>
