<?xml version="1.0" encoding="utf-8"?>
<!-- Generator: Adobe Illustrator 27.9.0, SVG Export Plug-In . SVG Version: 6.00 Build 0)  -->
<svg version="1.1" id="圖層_1" xmlns="http://www.w3.org/2000/svg" xmlns:xlink="http://www.w3.org/1999/xlink" x="0px" y="0px"
	 viewBox="0 0 24 24" style="enable-background:new 0 0 24 24;" xml:space="preserve">
<style type="text/css">
	.st0{fill:none;stroke:#03053D;stroke-width:2;stroke-linecap:round;stroke-linejoin:round;stroke-miterlimit:10;}
</style>
<g>
	<polyline class="st0" points="19.25,12.76 19.25,20.54 4.75,20.54 4.75,12.76 	"/>
	<path class="st0" d="M21.64,3.46H2.36v6.2H2.4c-0.02,0.12-0.04,0.23-0.04,0.35c0,1.52,1.44,2.76,3.21,2.76s3.21-1.24,3.21-2.76
		c0-0.12-0.02-0.23-0.04-0.35h0.08c-0.02,0.12-0.04,0.23-0.04,0.35c0,1.52,1.44,2.76,3.21,2.76s3.21-1.24,3.21-2.76
		c0-0.12-0.02-0.23-0.04-0.35h0.08c-0.02,0.12-0.04,0.23-0.04,0.35c0,1.52,1.44,2.76,3.21,2.76s3.21-1.24,3.21-2.76
		c0-0.12-0.02-0.23-0.04-0.35h0.04V3.46z"/>
</g>
</svg>
