<svg width="136" height="22" viewBox="0 0 136 22" fill="none" xmlns="http://www.w3.org/2000/svg">
<path d="M135.5 11.4165C135.5 11.8331 135.335 12.2325 135.043 12.527C134.75 12.8216 134.352 12.987 133.938 12.987L5.33525 12.5705L12.0516 19.308C12.3457 19.6037 12.5109 20.0048 12.5109 20.4231C12.5109 20.8413 12.3457 21.2424 12.0516 21.5381C11.7575 21.8339 11.3585 22 10.9426 22C10.5266 22 10.1277 21.8339 9.83362 21.5381L0.462017 12.1151C0.31562 11.9691 0.199421 11.7954 0.120124 11.604C0.0408266 11.4126 0 11.2073 0 11C0 10.7927 0.0408266 10.5874 0.120124 10.396C0.199421 10.2046 0.31562 10.0309 0.462017 9.88494L9.83362 0.461874C9.97925 0.315442 10.1521 0.199286 10.3424 0.120038C10.5327 0.0407891 10.7366 3.08582e-09 10.9426 0C11.1485 -3.08583e-09 11.3525 0.0407891 11.5428 0.120038C11.733 0.199286 11.9059 0.315442 12.0516 0.461874C12.1972 0.608306 12.3127 0.782146 12.3915 0.973469C12.4704 1.16479 12.5109 1.36985 12.5109 1.57694C12.5109 1.78402 12.4704 1.98908 12.3915 2.1804C12.3127 2.37173 12.1972 2.54557 12.0516 2.692L5.33525 9.42949L133.938 9.84601C134.352 9.84601 134.75 10.0115 135.043 10.306C135.335 10.6005 135.5 11 135.5 11.4165Z" fill="#555555"/>
</svg>
