<svg width="22" height="23" viewBox="0 0 22 23" fill="none" xmlns="http://www.w3.org/2000/svg">
<path d="M20 7.49941C20.5304 7.49941 21.0391 7.71013 21.4142 8.0852C21.7893 8.46027 22 8.96898 22 9.49941V13.4994C22 14.0298 21.7893 14.5386 21.4142 14.9136C21.0391 15.2887 20.5304 15.4994 20 15.4994H18.938C18.6942 17.4327 17.7533 19.2106 16.2917 20.4994C14.8302 21.7882 12.9486 22.4994 11 22.4994V20.4994C12.5913 20.4994 14.1174 19.8673 15.2426 18.7421C16.3679 17.6168 17 16.0907 17 14.4994V8.49941C17 6.90811 16.3679 5.38199 15.2426 4.25677C14.1174 3.13155 12.5913 2.49941 11 2.49941C9.4087 2.49941 7.88258 3.13155 6.75736 4.25677C5.63214 5.38199 5 6.90811 5 8.49941V15.4994H2C1.46957 15.4994 0.960859 15.2887 0.585786 14.9136C0.210714 14.5386 0 14.0298 0 13.4994V9.49941C0 8.96898 0.210714 8.46027 0.585786 8.0852C0.960859 7.71013 1.46957 7.49941 2 7.49941H3.062C3.30603 5.56631 4.24708 3.78868 5.70857 2.50009C7.17007 1.21149 9.05155 0.500488 11 0.500488C12.9484 0.500488 14.8299 1.21149 16.2914 2.50009C17.7529 3.78868 18.694 5.56631 18.938 7.49941H20ZM6.76 15.2844L7.82 13.5884C8.77308 14.1854 9.87537 14.5012 11 14.4994C12.1246 14.5012 13.2269 14.1854 14.18 13.5884L15.24 15.2844C13.9693 16.0806 12.4995 16.5017 11 16.4994C9.50046 16.5017 8.03074 16.0806 6.76 15.2844Z" fill="#03053D"/>
</svg>
