<?xml version="1.0" encoding="utf-8"?>
<!-- Generator: Adobe Illustrator 27.9.0, SVG Export Plug-In . SVG Version: 6.00 Build 0)  -->
<svg version="1.1" id="圖層_1" xmlns="http://www.w3.org/2000/svg" xmlns:xlink="http://www.w3.org/1999/xlink" x="0px" y="0px"
	 viewBox="0 0 24 24" style="enable-background:new 0 0 24 24;" xml:space="preserve">
<style type="text/css">
	.st0{fill:#03053D;}
</style>
<path class="st0" d="M20.92,20h2v2h-22v-2h2V3c0-0.27,0.11-0.52,0.29-0.71C3.4,2.11,3.65,2,3.92,2h16c0.27,0,0.52,0.11,0.71,0.29
	c0.19,0.19,0.29,0.44,0.29,0.71V20z M7.92,11v2h3v-2H7.92z M7.92,7v2h3V7H7.92z M7.92,15v2h3v-2H7.92z M12.92,15v2h3v-2H12.92z
	 M12.92,11v2h3v-2H12.92z M12.92,7v2h3V7H12.92z"/>
</svg>
