<svg width="20" height="21" viewBox="0 0 20 21" fill="none" xmlns="http://www.w3.org/2000/svg">
<path d="M0.243 6.27049L9.49 0.726494C9.64542 0.633243 9.82325 0.583984 10.0045 0.583984C10.1857 0.583984 10.3636 0.633243 10.519 0.726494L19.757 6.27149C19.8311 6.31591 19.8925 6.37877 19.9351 6.45396C19.9776 6.52915 20 6.61408 20 6.70049V19.4165C20 19.6817 19.8946 19.9361 19.7071 20.1236C19.5196 20.3111 19.2652 20.4165 19 20.4165H1C0.734784 20.4165 0.48043 20.3111 0.292893 20.1236C0.105357 19.9361 1.10073e-08 19.6817 1.10073e-08 19.4165V6.69949C-1.81179e-05 6.61308 0.0223578 6.52815 0.0649455 6.45296C0.107533 6.37777 0.168879 6.31491 0.243 6.27049ZM2 7.54949V18.4165H18V7.54849L10.004 2.74849L2 7.54849V7.54949ZM10.06 13.1145L15.356 8.65149L16.644 10.1815L10.074 15.7185L3.364 10.1885L4.636 8.64449L10.06 13.1145V13.1145Z" fill="#03053D"/>
</svg>
