<svg width="18" height="22" viewBox="0 0 18 22" fill="none" xmlns="http://www.w3.org/2000/svg">
<path d="M15.364 15.5002L9 21.8642L2.636 15.5002C1.37734 14.2415 0.520187 12.6378 0.172928 10.892C-0.17433 9.14618 0.00390685 7.33658 0.685099 5.69205C1.36629 4.04753 2.51984 2.64192 3.99988 1.653C5.47992 0.664068 7.21998 0.13623 9 0.13623C10.78 0.13623 12.5201 0.664068 14.0001 1.653C15.4802 2.64192 16.6337 4.04753 17.3149 5.69205C17.9961 7.33658 18.1743 9.14618 17.8271 10.892C17.4798 12.6378 16.6227 14.2415 15.364 15.5002V15.5002ZM9 11.1362C9.53044 11.1362 10.0391 10.9254 10.4142 10.5504C10.7893 10.1753 11 9.66659 11 9.13615C11 8.60572 10.7893 8.09701 10.4142 7.72194C10.0391 7.34687 9.53044 7.13615 9 7.13615C8.46957 7.13615 7.96086 7.34687 7.58579 7.72194C7.21072 8.09701 7 8.60572 7 9.13615C7 9.66659 7.21072 10.1753 7.58579 10.5504C7.96086 10.9254 8.46957 11.1362 9 11.1362Z" fill="#222222"/>
</svg>
