<?xml version="1.0" encoding="utf-8"?>
<!-- Generator: Adobe Illustrator 27.9.0, SVG Export Plug-In . SVG Version: 6.00 Build 0)  -->
<svg version="1.1" id="圖層_1" xmlns="http://www.w3.org/2000/svg" xmlns:xlink="http://www.w3.org/1999/xlink" x="0px" y="0px"
	 viewBox="0 0 24 24" style="enable-background:new 0 0 24 24;" xml:space="preserve">
<style type="text/css">
	.st0{fill:#03053D;}
</style>
<g>
	<g>
		<path class="st0" d="M8.25,15.45c-0.46,0-0.87-0.31-0.97-0.77L4.86,4.21H2c-0.55,0-1-0.45-1-1s0.45-1,1-1h3.65
			c0.47,0,0.87,0.32,0.97,0.77l2.6,11.24c0.12,0.54-0.21,1.08-0.75,1.2C8.4,15.44,8.32,15.45,8.25,15.45z"/>
	</g>
	<g>
		<path class="st0" d="M8.63,18.07c-0.55,0-1.38-0.03-1.99-0.64c-0.41-0.4-0.61-0.95-0.61-1.64c0-1.54,1.36-2.34,2.7-2.34h10.11
			l1.84-6.68H6.5c-0.55,0-1-0.45-1-1s0.45-1,1-1H22c0.31,0,0.61,0.15,0.8,0.39c0.19,0.25,0.25,0.57,0.17,0.87l-2.39,8.68
			c-0.12,0.43-0.51,0.73-0.96,0.73H8.73c0,0-0.7,0.03-0.7,0.34c0,0.14,0.02,0.21,0.03,0.23c0.08,0.05,0.45,0.05,0.6,0.05h11.07
			c0.55,0,1,0.45,1,1s-0.45,1-1,1H8.73C8.7,18.07,8.67,18.07,8.63,18.07z"/>
	</g>
	<g>
		<path class="st0" d="M9.51,21.79c-1.25,0-2.26-1.01-2.26-2.26c0-1.25,1.01-2.26,2.26-2.26c1.25,0,2.26,1.01,2.26,2.26
			C11.77,20.77,10.76,21.79,9.51,21.79z M9.51,19.26c-0.14,0-0.26,0.12-0.26,0.26c0,0.29,0.52,0.29,0.52,0
			C9.77,19.38,9.65,19.26,9.51,19.26z"/>
	</g>
	<g>
		<path class="st0" d="M18.36,21.79c-1.25,0-2.26-1.01-2.26-2.26c0-1.25,1.01-2.26,2.26-2.26s2.26,1.01,2.26,2.26
			C20.62,20.77,19.6,21.79,18.36,21.79z M18.36,19.26c-0.14,0-0.26,0.12-0.26,0.26c0,0.29,0.52,0.29,0.52,0
			C18.62,19.38,18.5,19.26,18.36,19.26z"/>
	</g>
</g>
</svg>
