<svg width="17" height="16" viewBox="0 0 17 16" fill="none" xmlns="http://www.w3.org/2000/svg">
<path d="M15.71 8.70994L9.71 14.7099C9.61676 14.8032 9.50607 14.8771 9.38425 14.9276C9.26243 14.9781 9.13186 15.004 9 15.004C8.86814 15.004 8.73757 14.9781 8.61575 14.9276C8.49393 14.8771 8.38324 14.8032 8.29 14.7099C8.19676 14.6167 8.1228 14.506 8.07234 14.3842C8.02188 14.2624 7.99591 14.1318 7.99591 13.9999C7.99591 13.8681 8.02188 13.7375 8.07234 13.6157C8.1228 13.4939 8.19676 13.3832 8.29 13.2899L12.59 8.99994H1C0.734784 8.99994 0.48043 8.89458 0.292893 8.70705C0.105357 8.51951 0 8.26516 0 7.99994C0 7.73472 0.105357 7.48037 0.292893 7.29283C0.48043 7.1053 0.734784 6.99994 1 6.99994H12.59L8.29 2.70994C8.1017 2.52164 7.99591 2.26624 7.99591 1.99994C7.99591 1.73364 8.1017 1.47825 8.29 1.28994C8.4783 1.10164 8.7337 0.99585 9 0.99585C9.2663 0.99585 9.5217 1.10164 9.71 1.28994L15.71 7.28994C15.8037 7.3829 15.8781 7.49351 15.9289 7.61536C15.9797 7.73722 16.0058 7.86793 16.0058 7.99994C16.0058 8.13195 15.9797 8.26266 15.9289 8.38452C15.8781 8.50638 15.8037 8.61698 15.71 8.70994Z" />
</svg>
