<?xml version="1.0" encoding="utf-8"?>
<!-- Generator: Adobe Illustrator 27.8.0, SVG Export Plug-In . SVG Version: 6.00 Build 0)  -->
<svg version="1.1" id="圖層_1" xmlns="http://www.w3.org/2000/svg" xmlns:xlink="http://www.w3.org/1999/xlink" x="0px" y="0px"
	 viewBox="0 0 144 30" style="enable-background:new 0 0 144 30;" xml:space="preserve">
<style type="text/css">
	.st0{fill:#FFFFFF;}
</style>
<path class="st0" d="M93.6,15.4c-0.3,1.2-0.5,2.4-0.8,3.6c-0.6,2.6-1.2,5.1-1.7,7.7c-0.2,0.9-0.2,0.9-1.1,0.9c-1.2,0-2.3,0-3.5,0
	c-0.7,0-0.8-0.1-1-0.7c-0.9-3.2-1.8-6.3-2.8-9.5c-0.6-2.2-1.3-4.5-1.9-6.7v-0.1c-0.2-0.8-0.2-0.9,0.7-0.9c1.2,0,2.4,0,3.6,0
	c0.8,0,0.8,0,1,0.8c0.8,2.9,1.7,5.9,2.5,8.9c0.1,0.4,0.2,0.8,0.3,1.1c0.1,0,0.1,0,0.2,0c0.1-0.5,0.2-1,0.3-1.5
	c0.6-2.8,1.2-5.6,1.7-8.4c0.2-0.8,0.2-0.9,1.1-0.9c1.1,0,2.2,0,3.2,0c0.8,0,0.8,0.1,1,0.8c0.6,3,1.2,6,1.9,9
	c0.1,0.3,0.1,0.6,0.2,1.1c0.3-0.3,0.3-0.6,0.4-0.9c0.9-3,1.7-6.1,2.6-9.1c0.2-0.8,0.3-0.9,1.1-0.9c1.2,0,2.5,0,3.7,0
	c0.7,0,0.8,0.1,0.6,0.8c-1.2,4.2-2.4,8.3-3.6,12.5c-0.4,1.3-0.8,2.7-1.2,4c-0.2,0.7-0.2,0.7-1,0.7c-1.2,0-2.4,0-3.6,0
	c-0.7,0-0.8,0-1-0.8c-0.8-3.3-1.5-6.7-2.3-10c-0.1-0.4-0.2-0.9-0.3-1.3C93.7,15.4,93.7,15.4,93.6,15.4z"/>
<path class="st0" d="M118.1,26.1c-0.3,0-0.4,0.3-0.6,0.4c-1.1,1.1-2.5,1.6-4,1.7c-0.9,0-1.8,0.1-2.6-0.2c-1.6-0.5-2.9-1.4-3.7-3
	c-1.4-2.8,0-6.2,2.9-7.3c1.4-0.5,2.9-0.8,4.4-0.9c0.7,0,1.3-0.1,2-0.3c0.6-0.1,1.2-0.4,1.3-1.1c0.1-0.7-0.2-1.3-0.7-1.8
	c-1.7-1.3-4.5-0.4-5.2,1.6c-0.2,0.7-0.2,0.7-0.9,0.6c-1-0.2-2-0.4-3-0.6c-0.7-0.2-0.8-0.3-0.6-1c0.7-2.4,2.2-4.2,4.7-4.8
	c2.6-0.7,5.2-0.6,7.6,0.7c2,1.1,3.2,2.8,3.2,5.2c0,2.7,0,5.4,0,8.1c0,1.2,0,2.3,0.2,3.5c0.1,0.6,0,0.7-0.6,0.7c-1.1,0-2.3,0-3.4,0
	c-0.6,0-0.7-0.1-0.7-0.7C118.2,26.7,118.2,26.4,118.1,26.1C118.2,26.1,118.2,26.1,118.1,26.1z M117.9,20.9c0-1.1,0-1.2-1-1
	c-0.6,0.1-1.3,0.1-1.9,0.2c-0.8,0.1-1.6,0.2-2.3,0.6c-0.7,0.5-1,1.1-0.9,2c0.1,0.8,0.5,1.4,1.3,1.6c1.3,0.4,2.4,0.2,3.5-0.6
	c0.6-0.4,0.9-1,1.1-1.6C117.9,21.6,117.9,21.1,117.9,20.9z"/>
<path class="st0" d="M66.2,26.1c-0.3,0-0.4,0.2-0.5,0.4c-1.2,1.2-2.7,1.7-4.3,1.8c-1,0-2,0-2.9-0.4c-4.3-1.7-4.3-6.3-2.4-8.6
	c0.7-0.8,1.5-1.3,2.5-1.6c1.3-0.5,2.6-0.7,3.9-0.8c0.6,0,1.3-0.1,1.9-0.2c0.3,0,0.6-0.1,0.8-0.2c0.7-0.3,0.9-1,0.7-1.7
	c-0.2-0.5-0.5-0.9-1-1.2c-1.2-0.5-2.5-0.6-3.7,0.1c-0.7,0.4-1,1-1.3,1.7C59.7,16,59.7,16,59,15.9c-1-0.2-2-0.4-3-0.6
	c-0.7-0.2-0.8-0.3-0.6-1c0.8-2.6,2.4-4.4,5.2-5C62.8,8.9,65,9,67.1,9.8c2.3,0.9,3.9,3.2,3.8,5.7c-0.1,2.6,0,5.3,0,7.9
	c0,1.2,0.1,2.3,0.2,3.5c0.1,0.7,0,0.8-0.6,0.8c-1.1,0-2.2,0-3.3,0c-0.7,0-0.7-0.1-0.8-0.8C66.3,26.6,66.4,26.4,66.2,26.1z M66,20.8
	c0-0.1,0-0.2,0-0.3c0-0.7-0.1-0.8-0.8-0.7c-1,0.1-2.1,0.3-3.1,0.4c-0.4,0.1-0.8,0.2-1.2,0.4c-0.8,0.4-1.2,1.2-1,2.1
	c0.1,0.8,0.7,1.5,1.5,1.7c0.8,0.2,1.6,0.2,2.4-0.1C65.2,23.7,66,22.5,66,20.8z"/>
<path class="st0" d="M130.5,11.3c0.3,0,0.4-0.3,0.6-0.5c1.1-1.1,2.4-1.6,3.9-1.7c1.5-0.1,3,0.2,4.3,1.1c1.5,0.9,2.3,2.3,2.6,4
	c0.1,0.6,0.2,1.3,0.2,1.9c0,2.4,0,4.8,0,7.2c0,0.2,0,0.4,0,0.6c0,0.5,0.1,0.6,0.6,0.7c0.7,0.2,0.7,0.2,0.8,0.9c0,0.6,0,1.1,0,1.7
	s-0.1,0.8-0.7,0.8c-1.2,0.1-2.3,0.1-3.5-0.1c-1.2-0.3-1.9-1-2.2-2.2c-0.1-0.6-0.2-1.1-0.2-1.7c0-2.3,0-4.7,0-7
	c0-0.8-0.2-1.5-0.8-2.1c-1.3-1.6-4.5-1.5-5.4,1.2c-0.3,0.8-0.3,1.6-0.3,2.4c0,2.6,0,5.3,0,7.9c0,0.2,0,0.5,0,0.7
	c0,0.5-0.1,0.6-0.6,0.6c-1.3,0-2.5,0-3.8,0c-0.4,0-0.6-0.2-0.6-0.6c0-0.2,0-0.4,0-0.6c0-5.2,0-10.4,0-15.6c0-1.2,0-1.2,1.1-1.2
	c1,0,2,0,2.9,0c0.7,0,0.7,0.1,0.8,0.8c0,0.3,0,0.5,0,0.8C130.4,11.2,130.5,11.3,130.5,11.3z"/>
<path class="st0" d="M45.7,17.2c0-3,0-6,0-9c0-0.2,0-0.4,0-0.6c0-0.6-0.1-0.7-0.7-0.7c-0.3,0-0.6,0-0.9,0c-1.6,0-3.2,0-4.9,0
	c-0.8,0-0.9-0.1-0.9-0.9c0-0.9,0-1.9,0-2.8c0-0.8,0.1-0.8,0.9-0.8c0.9,0,1.8,0,2.7,0c4.8,0,9.6,0,14.5,0c0.2,0,0.4,0,0.6,0
	c1,0,1,0,1,1c0,0.9,0,1.8,0,2.7c0,0.7-0.1,0.8-0.8,0.8c-1.8,0-3.6,0-5.3,0c-0.2,0-0.5,0-0.7,0c-0.3,0-0.5,0.2-0.5,0.5s0,0.5,0,0.8
	c0,6.1,0,12.1,0,18.2c0,1.3,0,1.3-1.3,1.3c-0.8,0-1.6,0-2.5,0c-1.2,0-1.2,0-1.2-1.3C45.7,23.3,45.7,20.3,45.7,17.2z"/>
<path class="st0" d="M78.7,17.2c0,2.1,0,4.3,0,6.4c0,0.9,0,0.9,0.8,1.1c0.4,0.1,0.6,0.3,0.6,0.7c0,0.7,0,1.4,0,2.1
	c0,0.4-0.2,0.6-0.6,0.6c-1.2,0-2.4,0.1-3.6-0.1c-1-0.3-1.7-0.9-2-1.9c-0.1-0.6-0.2-1.1-0.2-1.7c0-4.5,0-9.1,0-13.6
	c0-0.1,0-0.2,0-0.2c0-0.7,0.1-0.8,0.8-0.8c0.8,0,1.6,0,2.4,0c0.4,0,0.8,0,1.2,0c0.5,0,0.6,0.1,0.6,0.7c0,0.6,0,1.2,0,1.8
	C78.7,13.8,78.7,15.5,78.7,17.2z"/>
<path class="st0" d="M15,9.8c0,1.2,0,2.4,0,3.6c0,0.8,0,0.8-0.8,1c-2.8,0.6-5.7,1.3-8.5,1.9c-0.8,0.2-1,0.1-1.2-0.7
	c-1.4-5-2.9-9.8-4.3-14.7C0.1,0.7-0.1,0.3,0.1,0.1c0.3-0.3,0.6,0,0.9,0.1c4.4,1.6,8.8,3.3,13.3,4.9C15,5.4,15,5.4,15,6.3
	C15,7.5,15,8.6,15,9.8z"/>
<path class="st0" d="M17.6,9.7c0-1.2,0-2.4,0-3.6c0-0.7,0-0.8,0.7-1c2.8-1,5.5-2,8.3-3.1c1.7-0.6,3.4-1.3,5.1-1.9
	C32,0,32.3-0.3,32.6,0c0.2,0.2,0,0.5-0.1,0.8c-1.4,4.8-2.9,9.6-4.3,14.4c0,0.1-0.1,0.3-0.1,0.4c-0.2,0.5-0.3,0.6-0.8,0.5
	s-1-0.2-1.4-0.3c-2.4-0.5-4.9-1.1-7.3-1.6c-0.8-0.2-0.8-0.2-0.8-1C17.6,12.2,17.6,10.9,17.6,9.7z"/>
<path class="st0" d="M15,20c0,1.1,0,2.3,0,3.4c0,0.5-0.2,0.9-0.6,1.1c-3.1,1.8-6.1,3.6-9.2,5.3c-0.6,0.3-0.8,0.2-0.8-0.5
	c0.2-1.9,0-3.8,0.2-5.7c0-0.5,0.1-1.1,0-1.6c0-0.6,0.2-1,0.7-1.2c1.3-0.7,2.5-1.4,3.7-2c1.6-0.9,3.3-1.8,4.9-2.7
	c0.8-0.5,0.9-0.4,0.9,0.6C15,17.7,15,18.8,15,20z"/>
<path class="st0" d="M28.1,29.3c0,0.1,0,0.3,0,0.4c-0.1,0.4-0.2,0.4-0.5,0.3c-0.4-0.2-0.9-0.5-1.3-0.7c-2.7-1.6-5.3-3.1-8-4.7
	c-0.5-0.3-0.7-0.6-0.7-1.2c0-2.3,0-4.5,0-6.8c0-0.1,0-0.3,0-0.4c0-0.4,0.2-0.5,0.5-0.3c0.4,0.2,0.8,0.4,1.2,0.7
	c2.6,1.4,5.1,2.8,7.7,4.2c0.6,0.3,0.8,0.7,0.8,1.3C27.9,24.5,28,26.9,28.1,29.3z"/>
<path class="st0" d="M79.3,3.9c0,1.7-1.4,3.1-3.1,3.1c-1.6,0-3.1-1.5-3.1-3.1c0-1.7,1.4-3.1,3.1-3.1C78,0.8,79.3,2.2,79.3,3.9z"/>
</svg>
